<?xml version="1.0" encoding="UTF-8"?>
<svg width="800" height="600" viewBox="0 0 800 600" fill="none" xmlns="http://www.w3.org/2000/svg">
    <!-- Background Elements -->
    <circle cx="400" cy="300" r="250" fill="#EBF4FF" opacity="0.5"/>
    <path d="M500 150c30 0 50 20 50 50" stroke="#4299E1" stroke-width="4" stroke-linecap="round" opacity="0.4"/>
    <path d="M520 200c30 0 50 20 50 50" stroke="#4299E1" stroke-width="4" stroke-linecap="round" opacity="0.4"/>
    
    <!-- Main Building/Office -->
    <rect x="250" y="200" width="300" height="200" fill="#4299E1"/>
    <rect x="270" y="220" width="260" height="160" fill="white"/>
    
    <!-- Windows -->
    <rect x="290" y="240" width="60" height="60" fill="#4299E1" opacity="0.2"/>
    <rect x="370" y="240" width="60" height="60" fill="#4299E1" opacity="0.2"/>
    <rect x="450" y="240" width="60" height="60" fill="#4299E1" opacity="0.2"/>
    
    <!-- Door -->
    <rect x="370" y="320" width="60" height="80" fill="#4299E1"/>
    
    <!-- Business Elements -->
    <circle cx="200" y="150" r="30" fill="#4299E1"/>
    <path d="M185 150l10 10 20-20" stroke="white" stroke-width="4"/>
    
    <circle cx="600" y="150" r="30" fill="#4299E1"/>
    <text x="590" y="158" font-family="Arial" font-size="24" fill="white">$</text>
    
    <!-- Growth Chart -->
    <path d="M150 450l100-50 100-70 100-30" stroke="#4299E1" stroke-width="4" stroke-linecap="round"/>
    
    <!-- Decorative Elements -->
    <circle cx="150" y="450" r="8" fill="#4299E1"/>
    <circle cx="250" y="400" r="8" fill="#4299E1"/>
    <circle cx="350" y="330" r="8" fill="#4299E1"/>
    <circle cx="450" y="300" r="8" fill="#4299E1"/>
</svg>
